<?xml version="1.0" encoding="UTF-8"?>
<svg xmlns="http://www.w3.org/2000/svg" viewBox="0 0 512 512" width="512" height="512">
  <defs>
    <linearGradient id="bg" x1="0" y1="0" x2="1" y2="1">
      <stop offset="0%" stop-color="#0F172A"/>
      <stop offset="55%" stop-color="#1E3A8A"/>
      <stop offset="100%" stop-color="#1E40AF"/>
    </linearGradient>
    <radialGradient id="shine" cx="0.3" cy="0.25" r="0.7">
      <stop offset="0%" stop-color="#FFFFFF" stop-opacity="0.18"/>
      <stop offset="60%" stop-color="#FFFFFF" stop-opacity="0"/>
    </radialGradient>
  </defs>
  <rect x="0" y="0" width="512" height="512" rx="112" ry="112" fill="url(#bg)"/>
  <rect x="0" y="0" width="512" height="512" rx="112" ry="112" fill="url(#shine)"/>
  <g fill="#FFFFFF">
    <path d="M 266.47 56.27 A 200 200 0 0 1 423.73 147.07 L 365.03 185.20 A 130 130 0 0 0 262.80 126.18 Z"/>
    <path d="M 434.20 165.20 A 200 200 0 0 1 434.20 346.80 L 371.83 315.02 A 130 130 0 0 0 371.83 196.98 Z"/>
    <path d="M 423.73 364.93 A 200 200 0 0 1 266.47 455.73 L 262.80 385.82 A 130 130 0 0 0 365.03 326.80 Z"/>
    <path d="M 245.53 455.73 A 200 200 0 0 1 88.27 364.93 L 146.97 326.80 A 130 130 0 0 0 249.20 385.82 Z"/>
    <path d="M 77.80 346.80 A 200 200 0 0 1 77.80 165.20 L 140.17 196.98 A 130 130 0 0 0 140.17 315.02 Z"/>
    <path d="M 88.27 147.07 A 200 200 0 0 1 245.53 56.27 L 249.20 126.18 A 130 130 0 0 0 146.97 185.20 Z"/>
  </g>
  <circle cx="256" cy="256" r="42" fill="#FFFFFF"/>
</svg>
