<?xml version="1.0" encoding="UTF-8"?>
<!-- NSIS installer header banner: 150x57px, displayed at top of inner pages -->
<svg xmlns="http://www.w3.org/2000/svg" width="150" height="57" viewBox="0 0 150 57">
  <defs>
    <linearGradient id="bg" x1="0" y1="0" x2="1" y2="1">
      <stop offset="0%" stop-color="#0F172A"/>
      <stop offset="55%" stop-color="#1E3A8A"/>
      <stop offset="100%" stop-color="#1E40AF"/>
    </linearGradient>
  </defs>

  <!-- Full-bleed dark background -->
  <rect x="0" y="0" width="150" height="57" fill="url(#bg)"/>

  <!-- Omnix mark on the right (6-segment ring + core), 36px container -->
  <g transform="translate(112, 10) scale(0.07)">
    <!-- Squircle tile -->
    <rect x="0" y="0" width="512" height="512" rx="112" ry="112" fill="rgba(255,255,255,0.06)"/>
    <g fill="#FFFFFF">
      <path d="M 266.46 56.55 A 200 200 0 0 1 437.65 156.30 L 372.74 193.60 A 130 130 0 0 0 261.35 128.76 Z"/>
      <path d="M 442.80 165.23 A 200 200 0 0 1 442.80 346.77 L 374.82 318.53 A 130 130 0 0 0 374.82 193.47 Z"/>
      <path d="M 437.65 355.70 A 200 200 0 0 1 266.46 455.45 L 261.35 383.24 A 130 130 0 0 0 372.74 318.40 Z"/>
      <path d="M 245.54 455.45 A 200 200 0 0 1 74.35 355.70 L 139.26 318.40 A 130 130 0 0 0 250.65 383.24 Z"/>
      <path d="M 69.20 346.77 A 200 200 0 0 1 69.20 165.23 L 137.18 193.47 A 130 130 0 0 0 137.18 318.53 Z"/>
      <path d="M 74.35 156.30 A 200 200 0 0 1 245.54 56.55 L 250.65 128.76 A 130 130 0 0 0 139.26 193.60 Z"/>
    </g>
    <circle cx="256" cy="256" r="42" fill="#FFFFFF"/>
  </g>

  <!-- Product name -->
  <text x="14" y="28"
        font-family="Segoe UI, Arial, sans-serif"
        font-size="18"
        font-weight="700"
        fill="#FFFFFF"
        letter-spacing="-0.5">Omnix</text>
  <text x="14" y="44"
        font-family="Segoe UI, Arial, sans-serif"
        font-size="9"
        fill="#94A3B8"
        letter-spacing="0.5">ERP for Kenyan SMEs</text>
</svg>
